<?xml version="1.0" standalone="no"?>
<!DOCTYPE svg PUBLIC "-//W3C//DTD SVG 1.1//EN" "http://www.w3.org/Graphics/SVG/1.1/DTD/svg11.dtd" >
<!--
2013-9-30: Created.
-->
<svg>
<metadata>
Created by iconfont
</metadata>
<defs>

<font id="iconfont" horiz-adv-x="1024" >
  <font-face
    font-family="iconfont"
    font-weight="500"
    font-stretch="normal"
    units-per-em="1024"
    ascent="896"
    descent="-128"
  />
    <missing-glyph />
    
    <glyph glyph-name="x" unicode="x" horiz-adv-x="1001"
d="M281 543q-27 -1 -53 -1h-83q-18 0 -36.5 -6t-32.5 -18.5t-23 -32t-9 -45.5v-76h912v41q0 16 -0.5 30t-0.5 18q0 13 -5 29t-17 29.5t-31.5 22.5t-49.5 9h-133v-97h-438v97zM955 310v-52q0 -23 0.5 -52t0.5 -58t-10.5 -47.5t-26 -30t-33 -16t-31.5 -4.5q-14 -1 -29.5 -0.5
t-29.5 0.5h-32l-45 128h-439l-44 -128h-29h-34q-20 0 -45 1q-25 0 -41 9.5t-25.5 23t-13.5 29.5t-4 30v167h911zM163 247q-12 0 -21 -8.5t-9 -21.5t9 -21.5t21 -8.5q13 0 22 8.5t9 21.5t-9 21.5t-22 8.5zM316 123q-8 -26 -14 -48q-5 -19 -10.5 -37t-7.5 -25t-3 -15t1 -14.5
t9.5 -10.5t21.5 -4h37h67h81h80h64h36q23 0 34 12t2 38q-5 13 -9.5 30.5t-9.5 34.5q-5 19 -11 39h-368zM336 498v228q0 11 2.5 23t10 21.5t20.5 15.5t34 6h188q31 0 51.5 -14.5t20.5 -52.5v-227h-327z" />
    

    
    <glyph glyph-name="yuancircle46" unicode="&#59229;" d="M229.76512 101.76512c155.61728-155.61728 408.84224-155.61728 564.45952 0s155.61728 408.84224 0 564.45952-408.84224 155.61728-564.45952 0S74.14784 257.39264 229.76512 101.76512zM260.73088 635.27936c138.55744 138.55744 364.00128 138.55744 502.55872 0 138.53696-138.5472 138.53696-364.00128 0-502.55872-138.55744-138.5472-364.02176-138.5472-502.55872 0C122.17344 271.27808 122.17344 496.73216 260.73088 635.27936z"  horiz-adv-x="1024" />

    
    <glyph glyph-name="erweima" unicode="&#58947;" d="M48.384 850.624l412.224 0 0-84.992-412.224 0 0 84.992ZM565.44 850.624l238.656 0 0-84.992-238.656 0 0 84.992ZM891.584 850.624l86.72 0 0-86.72-86.72 0 0 86.72ZM48.384 521.6l412.224 0 0-85.056-412.224 0 0 85.056ZM45.696 850.624l84.992 0 0-412.224-84.992 0 0 412.224ZM375.616 850.624l84.992 0 0-412.224-84.992 0 0 412.224ZM189.376 695.168l115.712 0 0-115.712-115.712 0 0 115.712ZM565.44 765.632l82.752 0 0-87.232-82.752 0 0 87.232ZM804.032 765.632l90.752 0 0-160.512-90.752 0 0 160.512ZM891.584 678.4l86.72 0 0-151.872-86.72 0 0 151.872ZM651.328 613.312l152.768 0 0-109.312-152.768 0 0 109.312ZM736.832 526.592l155.392 0 0-88.128-155.392 0 0 88.128ZM565.952 523.84l85.376 0 0-85.376-85.376 0 0 85.376ZM45.696 353.216l84.992 0 0-192.576-84.992 0 0 192.576ZM130.88 178.752l91.968 0 0-92.032-91.968 0 0 92.032ZM45.696 90.368l85.184 0 0-173.056-85.184 0 0 173.056ZM217.664 353.216l261.696 0 0-105.728-261.696 0 0 105.728ZM281.344 256.896l109.184 0 0-100.48-109.184 0 0 100.48ZM370.176 178.752l109.184 0 0-174.848-109.184 0 0 174.848ZM285.44 90.368l105.088 0 0-173.056-105.088 0 0 173.056ZM197.952 26.88l102.016 0 0-109.568-102.016 0 0 109.568ZM629.184 353.216l195.264 0 0-174.464-195.264 0 0 174.464ZM871.168 353.216l107.136 0 0-107.136-107.136 0 0 107.136ZM545.088 265.984l107.136 0 0-194.304-107.136 0 0 194.304ZM716.672 203.2l107.776 0 0-111.872-107.776 0 0 111.872ZM545.088 26.88l107.136 0 0-109.568-107.136 0 0 109.568ZM802.816 3.904l175.488 0 0-86.592-175.488 0 0 86.592ZM890.56 91.328l87.744 0 0-105.728-87.744 0 0 105.728Z"  horiz-adv-x="1024" />

    
    <glyph glyph-name="danxuan" unicode="&#58906;" d="M512 781.312C282.624 781.312 98.304 596.992 98.304 367.616S282.624-46.08 512-46.08c229.376 0 413.696 184.32 413.696 413.696S741.376 781.312 512 781.312zM512-9.216c-208.896 0-376.832 167.936-376.832 376.832 0 208.896 167.936 376.832 376.832 376.832 208.896 0 376.832-167.936 376.832-376.832C888.832 158.72 720.896-9.216 512-9.216zM512 367.616m-151.552 0a3.7 3.7 0 1 0 303.104 0 3.7 3.7 0 1 0-303.104 0Z"  horiz-adv-x="1024" />

    
    <glyph glyph-name="jiantou" unicode="&#59306;" d="M451.853 833.436v-574.282h-240.405l299.672-324.802 299.714 324.802h-240.365v574.282h-118.616z"  horiz-adv-x="1025" />

    
    <glyph glyph-name="left" unicode="&#58998;" d="M306.265625 383.94375c0-7.14375 2.7-14.259375 8.15625-19.6875l318.459375-318.459375a27.95625 27.95625 0 0 1 39.65625 0.1125 28.040625 28.040625 0 0 1 0.1125 39.65625L374.1875 384 672.59375 682.434375a27.95625 27.95625 0 0 1-0.1125 39.65625 28.040625 28.040625 0 0 1-39.65625 0.1125L314.45 403.74375a27.7875 27.7875 0 0 1-8.184375-19.6875l0.028125-0.1125z"  horiz-adv-x="1056" />

    
    <glyph glyph-name="zongdianfei" unicode="&#58930;" d="M908.555 436.025c0 18.482-12.076 44.427-69.604 63.07-37.554 12.17-87.076 18.872-139.445 18.872-39.484 0-77.348-3.812-109.685-10.902l-12.32-19.731 118.809 2.119-13.151-13.723a566.734 566.734 0 0 0 16.348 0.237c46.065 0 89.647-5.554 122.718-15.639 34.367-10.48 43.576-21.628 44.313-24.304-0.737-2.676-9.945-13.824-44.313-24.305-33.07-10.085-76.652-15.639-122.718-15.639-30.521 0-59.947 2.44-85.951 7.019l-34.176-35.663c34.488-8.662 76.308-13.355 120.127-13.355 52.369 0 101.892 6.701 139.445 18.873 10.704 3.469 19.832 7.191 27.604 11.07v-50.613c-0.58-2.535-9.632-13.799-44.332-24.379-33.07-10.086-76.652-15.639-122.718-15.639-46.067 0-89.649 5.553-122.72 15.639-19.521 5.951-30.913 12.115-37.257 16.822l-49.075-51.209v-42.551c0-0.605 0.014-1.219 0.041-1.84-3.196-4.301-14.274-13.619-43.282-22.465-8.482-2.586-17.66-4.871-27.389-6.846l-46.785-48.818c33.952 2.814 65.227 8.578 90.903 16.9 10.208 3.309 18.979 6.848 26.512 10.533v-52.791c0-0.605 0.014-1.219 0.041-1.84-3.195-4.303-14.273-13.619-43.28-22.465-33.07-10.084-76.652-15.639-122.719-15.639s-89.648 5.555-122.719 15.639c-34.7 10.582-43.752 21.844-44.332 24.379v53.254c7.771-3.881 16.9-7.602 27.604-11.07 37.554-12.172 87.077-18.873 139.446-18.873 4.434 0 8.846 0.051 13.233 0.146l19.565 42.813a556.96 556.96 0 0 0-32.799-0.959c-46.064 0-89.646 5.553-122.717 15.637-34.7 10.582-43.753 21.846-44.334 24.381v49.164c7.771-3.879 16.9-7.602 27.604-11.07 37.554-12.17 87.076-18.871 139.446-18.871 20.939 0 41.422 1.074 60.868 3.139l20.619 45.117c-24.887-4.088-52.702-6.256-81.487-6.256-46.066 0-89.648 5.553-122.719 15.639-34.7 10.58-43.752 21.844-44.332 24.379v51.89c7.771-3.88 16.9-7.601 27.604-11.07 37.554-12.172 87.077-18.873 139.446-18.873 34.304 0 67.387 2.875 96.684 8.281h-78.164l17.928 34.906a555.334 555.334 0 0 0-36.447-1.188c-46.064 0-89.646 5.554-122.717 15.638-34.7 10.582-43.753 21.845-44.334 24.38V486.54c7.771-3.879 16.9-7.602 27.604-11.07 37.554-12.17 87.076-18.872 139.446-18.872 23.631 0 46.676 1.369 68.309 3.984l23.702 46.15c-27.45-5.298-59.095-8.135-92.011-8.135-46.066 0-89.648 5.554-122.719 15.639-34.7 10.581-43.752 21.844-44.332 24.379V589.23c7.771-3.879 16.9-7.602 27.604-11.07 37.554-12.171 87.076-18.873 139.446-18.873 46.666 0 91.063 5.326 126.754 15.097l22.861 44.513h59.436v16.031c0 0.864-0.068 1.71-0.17 2.547 0.115 1.281 0.17 2.535 0.17 3.756 0 18.482-12.076 44.427-69.604 63.07-37.554 12.17-87.076 18.872-139.446 18.872S222.603 716.47 185.049 704.3c-57.528-18.644-69.604-44.588-69.604-63.07 0-1.221 0.055-2.475 0.17-3.756a20.99 20.99 0 0 1-0.17-2.547v-96.386c0-0.939 0.033-1.898 0.1-2.875-0.061-0.652-0.1-1.311-0.1-1.979V437.3c0-1.467 0.076-2.98 0.246-4.533a20.954 20.954 0 0 1-0.246-3.046v-96.386c0-0.939 0.033-1.898 0.1-2.875-0.061-0.652-0.1-1.311-0.1-1.979v-96.387c0-1.707 0.104-3.479 0.336-5.301a21.073 21.073 0 0 1-0.336-3.639v-96.387c0-18.482 12.076-44.428 69.604-63.07 37.554-12.17 87.076-18.873 139.446-18.873s101.893 6.703 139.446 18.873c22.097 7.16 37.481 15.398 48.058 23.877 10.577-8.479 25.962-16.717 48.059-23.877 37.554-12.17 87.076-18.873 139.447-18.873 52.369 0 101.892 6.703 139.445 18.873 57.528 18.643 69.604 44.588 69.604 63.07v96.387c0 1.244-0.129 2.455-0.337 3.639a41.97 41.97 0 0 1 0.337 5.301v96.387c0 0.668-0.039 1.326-0.101 1.979 0.067 0.977 0.101 1.936 0.101 2.875v96.386c0 0.864-0.067 1.71-0.169 2.547 0.115 1.282 0.17 2.536 0.17 3.757zM201.776 665.533c33.07 10.085 76.652 15.639 122.719 15.639s89.648-5.554 122.719-15.639c34.367-10.48 43.576-21.628 44.313-24.304-0.737-2.676-9.945-13.824-44.313-24.305-33.07-10.085-76.652-15.639-122.719-15.639s-89.648 5.554-122.719 15.639c-34.368 10.48-43.576 21.629-44.313 24.305 0.737 2.677 9.946 13.824 44.313 24.304z m664.779-538.689c-0.58-2.535-9.632-13.797-44.332-24.379-33.07-10.084-76.652-15.639-122.718-15.639-46.067 0-89.649 5.555-122.72 15.639-29.007 8.846-40.085 18.162-43.28 22.465 0.027 0.621 0.041 1.234 0.041 1.84v52.79c7.533-3.686 16.303-7.225 26.512-10.533 37.554-12.172 87.077-18.873 139.447-18.873 52.368 0 101.892 6.701 139.445 18.873 10.704 3.469 19.832 7.189 27.604 11.07v-53.253z m0 105.328c-0.581-2.535-9.634-13.799-44.334-24.381-33.07-10.084-76.652-15.637-122.716-15.637-46.065 0-89.647 5.553-122.718 15.637-29.008 8.846-40.087 18.164-43.282 22.465 0.027 0.621 0.041 1.234 0.041 1.84v48.703c7.533-3.686 16.303-7.225 26.512-10.533 37.554-12.17 87.076-18.871 139.447-18.871 52.369 0 101.892 6.701 139.445 18.871 10.704 3.469 19.832 7.191 27.604 11.07v-49.164zM605.72 586.721l-114.903-0.696-98.499-192.273 91.731 1.733-94.421-190.77 244.743 261.028-103.017-0.14z"  horiz-adv-x="1024" />

    
    <glyph glyph-name="zongdianliang" unicode="&#58933;" d="M681.54 451.91l-131.773-0.18 95.123 154.928-146.977-0.891-125.994-245.944 117.338 2.216-120.779-244.022zM967.806 309.109l-66.57 66.57c-3.628 6.289-10.405 10.533-18.188 10.533-11.598 0-21-9.402-21-21 0-197.265-160.486-357.752-357.752-357.752-99.666 0-195.584 42.062-263.16 115.399-7.86 8.53-21.145 9.072-29.673 1.213-8.529-7.859-9.073-21.145-1.213-29.674 37.065-40.226 81.071-71.915 130.793-94.187 51.482-23.06 106.409-34.752 163.254-34.752 53.957 0 106.311 10.572 155.608 31.423 47.604 20.136 90.353 48.956 127.059 85.662s65.526 79.455 85.662 127.06c14.501 34.285 24.025 70.05 28.484 106.803l36.997-36.998a20.935 20.935 0 0 1 14.85-6.15 20.943 20.943 0 0 1 14.85 6.15c8.199 8.202 8.199 21.499-0.001 29.7zM517.993 760.539c99.665 0 195.583-42.062 263.16-115.399 7.858-8.528 21.145-9.072 29.674-1.213s9.072 21.145 1.213 29.673c-37.066 40.227-81.071 71.916-130.794 94.187-51.481 23.06-106.408 34.752-163.253 34.752-53.957 0-106.312-10.572-155.608-31.423-47.605-20.135-90.354-48.956-127.06-85.662s-65.527-79.455-85.662-127.06c-15.033-35.542-24.721-72.674-28.958-110.85l-34.812 34.812c-8.201 8.201-21.497 8.201-29.698 0s-8.201-21.498 0-29.698l68.196-68.196c4.101-4.101 9.475-6.151 14.849-6.151s10.749 2.05 14.849 6.151c4.555 4.555 6.571 10.682 6.065 16.635 0.045 0.559 0.085 1.119 0.085 1.689 0.001 197.266 160.489 357.753 357.754 357.753z"  horiz-adv-x="1024" />

    
    <glyph glyph-name="jihuayongdianpeizhi" unicode="&#58946;" d="M873.937-47.429H587.55c-11.598 0-21 9.402-21 21s9.402 21 21 21h286.388c8.071 0 14.638 6.566 14.638 14.638V309.081c0 11.598 9.402 21 21 21s21-9.402 21-21v-299.873c-0.001-31.23-25.408-56.637-56.639-56.637zM107.148 423.802c-11.598 0-21 9.402-21 21V744.675c0 31.23 25.408 56.638 56.639 56.638h286.387c11.598 0 21-9.402 21-21s-9.402-21-21-21H142.787c-8.072 0-14.639-6.566-14.639-14.638v-299.873c0-11.598-9.402-21-21-21zM648.264 587.057l-146.976-0.891-125.994-245.944 117.338 2.216-120.78-244.022 313.063 333.893-131.774-0.18z"  horiz-adv-x="1024" />

    
    <glyph glyph-name="nengyuanjiashicang" unicode="&#58958;" d="M920.386 405h-62.872c-2.337 39.309-11.227 77.486-26.564 113.749-14.708 34.776-34.79 66.544-59.787 94.717l44.46 44.459c8.201 8.201 8.201 21.497 0 29.698s-21.498 8.201-29.699 0l-44.459-44.459c-28.173 24.997-59.94 45.078-94.717 59.787-36.263 15.338-74.439 24.228-113.748 26.564v62.873c0 11.598-9.401 21-21 21s-21-9.402-21-21v-62.873c-39.31-2.337-77.486-11.226-113.75-26.564-34.775-14.709-66.543-34.79-94.716-59.787l-44.459 44.459c-8.201 8.201-21.497 8.201-29.698 0s-8.201-21.497 0-29.698l44.459-44.459c-24.997-28.173-45.078-59.941-59.787-94.717-15.338-36.263-24.228-74.439-26.564-113.749h-62.872c-11.598 0-21-9.402-21-21s9.402-21 21-21h62.872c2.337-39.31 11.226-77.485 26.564-113.748 14.709-34.776 34.79-66.544 59.787-94.717l-44.459-44.459c-8.201-8.201-8.201-21.498 0-29.699 4.101-4.101 9.475-6.15 14.849-6.15s10.749 2.05 14.849 6.15l44.459 44.46c28.173-24.997 59.94-45.079 94.716-59.787 36.263-15.338 74.44-24.228 113.75-26.564v-62.872c0-11.598 9.402-21 21-21s21 9.402 21 21v62.872c39.309 2.337 77.485 11.227 113.748 26.564 34.775 14.708 66.544 34.79 94.717 59.787l44.459-44.46c4.101-4.101 9.476-6.15 14.85-6.15s10.749 2.051 14.85 6.15c8.201 8.201 8.2 21.498 0 29.699l-44.46 44.459c24.997 28.173 45.079 59.941 59.787 94.717 15.338 36.263 24.228 74.438 26.564 113.748h62.872c11.598 0 21 9.401 21 21s-9.403 21-21.001 21z m-104.962 0h-198.83a106.389 106.389 0 0 1-16.184 37.712L741.308 583.61c42.285-48.513 69.45-110.518 74.116-178.61zM711.609 613.309L570.404 472.104A106.324 106.324 0 0 1 533 487.381V687.424c68.093-4.666 130.097-31.831 178.609-74.115zM491 687.425v-200.043a106.357 106.357 0 0 1-37.405-15.278L312.389 613.308c48.513 42.285 110.518 69.45 178.611 74.117zM282.691 583.61l140.899-140.9A106.401 106.401 0 0 1 407.408 405H208.575c4.667 68.093 31.831 130.097 74.116 178.61zM208.575 363h198.222a106.332 106.332 0 0 1 15.57-38.935L282.691 184.39c-42.285 48.513-69.45 110.517-74.116 178.61zM312.39 154.692L451.759 294.06a106.39 106.39 0 0 1 39.242-16.501v-196.982c-68.094 4.665-130.098 31.83-178.611 74.115zM533 80.576V277.559a106.385 106.385 0 0 1 39.241 16.501l139.368-139.368c-48.513-42.285-110.516-69.45-178.609-74.116z m208.308 103.815L601.635 324.065a106.324 106.324 0 0 1 15.571 38.936h198.218c-4.666-68.094-31.831-130.097-74.116-178.61z"  horiz-adv-x="1024" />

    
    <glyph glyph-name="baojingguize" unicode="&#58951;" d="M722.224 18.142c-11.598 0-21 9.402-21 21V383.308c0 46.465-37.802 84.268-84.268 84.268H382.623c-46.465 0-84.268-37.802-84.268-84.268v-344.166c0-11.598-9.402-21-21-21s-21 9.402-21 21V383.308c0 69.624 56.644 126.268 126.268 126.268h234.334c69.624 0 126.268-56.644 126.268-126.268v-344.166c-0.001-11.598-9.403-21-21.001-21zM499.79 607.214c-16.568 0-30 13.431-30 30l-0.001 120.64c0 16.569 13.431 30 30 30 16.568 0 30-13.431 30-30l0.001-120.64c0-16.568-13.432-30-30-30zM733.865 551.46c-7.678 0-15.355 2.929-21.213 8.787-11.716 11.716-11.716 30.71 0 42.426l85.305 85.306c11.715 11.716 30.711 11.716 42.426 0 11.716-11.716 11.716-30.71 0-42.426l-85.305-85.306c-5.858-5.858-13.535-8.787-21.213-8.787zM265.715 551.46c-7.678 0-15.355 2.929-21.213 8.787l-85.306 85.305c-11.716 11.716-11.716 30.711 0 42.426 11.716 11.716 30.71 11.716 42.426 0l85.306-85.305c11.716-11.716 11.716-30.711 0-42.426-5.858-5.858-13.536-8.787-21.213-8.787zM423.306 28.222c-11.598 0-21 9.402-21 21V334.118c0 11.598 9.402 21 21 21s21-9.402 21-21v-284.896c0-11.598-9.401-21-21-21zM845.929 18.142h-692.28c-11.598 0-21 9.402-21 21s9.402 21 21 21h692.28c11.598 0 21-9.402 21-21s-9.402-21-21-21z"  horiz-adv-x="1024" />

    
    <glyph glyph-name="mingxichaxun" unicode="&#58994;" d="M907.729 124.096H116.27c-31.23 0-56.638 25.407-56.638 56.638V709.363c0 31.23 25.408 56.637 56.638 56.637h791.459c31.23 0 56.638-25.407 56.638-56.637v-528.629c0-31.231-25.407-56.638-56.638-56.638zM116.27 724c-8.071 0-14.638-6.566-14.638-14.637v-528.629c0-8.071 6.566-14.638 14.638-14.638h791.459c8.071 0 14.638 6.566 14.638 14.638V709.363c0 8.071-6.566 14.637-14.638 14.637H116.27zM943.367 2H80.633c-11.598 0-21 9.402-21 21s9.402 21 21 21h862.734c11.598 0 21-9.402 21-21s-9.402-21-21-21zM746.91 292.588L643.181 453.943l-89.834-131.481L445.68 550.958 342.164 348.093l-96.854 96.854-75.795-75.796c-8.2-8.201-21.497-8.201-29.698 0s-8.201 21.498 0 29.699L245.31 504.343l85.701-85.701L447.18 646.306l112.883-239.564 84.184 123.212L762.542 345.94l82.45 37.755c10.545 4.827 23.009 0.194 27.837-10.35 4.828-10.545 0.194-23.008-10.351-27.837l-115.568-52.92z"  horiz-adv-x="1024" />

    
    <glyph glyph-name="dian" unicode="&#59003;" d="M730.2144 766.79168l-246.53312-1.48992-211.34336-412.54912 196.82304 3.72224-202.59328-409.3184L791.69536 507.22304l-221.04064-0.30208z"  horiz-adv-x="1024" />

    
    <glyph glyph-name="touxiang" unicode="&#59004;" d="M374.30272 422.76864c11.9808-10.09152 46.17216-42.83392 46.17216-87.61344 0-41.5488-48.55296-88.02304-93.89568-105.35936l-1.03936-0.37376c-89.7792-30.71488-185.13408-106.99776-195.2256-124.3648-10.32192-17.78688-10.28608-21.03808-10.14272-33.14176 0.02048-1.90464 0.05632-3.90144 0.05632-6.0416 0-40.63232 34.11968-73.68704 76.07296-73.68704h629.08928c44.7488 0 78.47424 31.67232 78.47424 73.68704 0 14.09024-5.07392 28.928-15.9744 46.61248-40.25856 52.38784-105.24672 94.3104-188.07808 121.29792-12.11904 3.2512-39.45984 10.85952-50.37568 16.32256l-1.32096 0.65024-1.24416 0.77824c-27.72992 17.31584-45.66016 51.08736-45.66016 85.99552 0 35.1744 23.34208 61.824 38.76864 79.44704 1.50528 1.71008 2.95936 3.37408 4.34688 4.99712 31.04256 37.35552 47.4624 87.25504 47.4624 144.32256 0 115.52768-81.17248 209.52576-180.9408 209.52576S329.91232 680.76032 329.91232 563.92192c0-62.67392 16.16896-114.048 44.3904-141.15328z"  horiz-adv-x="1024" />

    
    <glyph glyph-name="xiaolian" unicode="&#59005;" d="M495.465 65.335c-187.138 0-264.948 168.222-268.193 175.401l62.966 28.307c2.486-5.49 62.207-134.667 205.194-134.667 153.067 1.795 211.302 129.213 213.685 134.633l63.103-27.996c-3.141-7.077-79.054-173.364-273.13-175.643l-3.625-0.034z m4.695-160.556c-256.974 0-466.034 209.06-466.034 466.034S243.186 836.847 500.16 836.847s466.034-209.06 466.034-466.034-209.06-466.034-466.034-466.034z m0 863.025c-218.897 0-396.991-178.094-396.991-396.991S281.263-26.178 500.16-26.178s396.991 178.094 396.991 396.991S719.092 767.804 500.16 767.804zM311.088 451.73c0-29.689 24.062-53.818 53.818-53.818s53.818 24.096 53.818 53.818-24.062 53.818-53.818 53.818-53.818-24.096-53.818-53.818z m269.677 0c0-29.689 24.062-53.818 53.818-53.818s53.818 24.096 53.818 53.818-24.062 53.818-53.818 53.818-53.818-24.096-53.818-53.818z"  horiz-adv-x="1026" />

    
    <glyph glyph-name="kulian" unicode="&#59006;" d="M500.16256-95.22176c-256.9728 0-466.03264 209.05984-466.03264 466.02752 0 256.97792 209.05984 466.03776 466.03264 466.03776s466.03264-209.05984 466.03264-466.03776c0-256.96768-209.05984-466.02752-466.03264-466.02752z m0 863.0272c-218.89536 0-396.98944-178.09408-396.98944-396.99456 0-218.89536 178.09408-396.98944 396.98944-396.98944 218.90048 0 396.98944 178.09408 396.98944 396.98944 0 218.90048-178.06336 396.99456-396.98944 396.99456zM311.08608 451.73248c0-29.69088 24.064-53.81632 53.81632-53.81632 29.75744 0 53.82144 24.09472 53.82144 53.81632S394.65984 505.5488 364.9024 505.5488c-29.75232 0-53.81632-24.09472-53.81632-53.81632zM580.76672 451.73248c0-29.69088 24.064-53.81632 53.81632-53.81632 29.76256 0 53.82144 24.09472 53.82144 53.81632s-24.05888 53.81632-53.82144 53.81632c-29.75232 0-53.81632-24.09472-53.81632-53.81632zM336.2816 119.86432c33.76128 34.20672 87.80288 69.43744 167.77728 70.3744 78.22336 0 131.4816-38.656 164.12672-74.5728l60.4928 35.01568c-41.36448 49.60768-113.82784 108.60032-224.65024 108.60032l-3.62496-0.03584c-109.50144-1.28512-181.37088-54.77888-223.7952-102.43072l59.6736-36.95104z"  horiz-adv-x="1026" />

    
    <glyph glyph-name="beizhu" unicode="&#59007;" d="M750.06464 527.28832H288.68608a20.49536 20.49536 0 1 0 0 40.9856h461.37856a20.49536 20.49536 0 1 0 0-40.9856zM750.06464 424.25344H288.68608a20.49536 20.49536 0 1 0 0 40.9856h461.37856a20.49536 20.49536 0 1 0 0-40.9856zM412.19072 308.58752H288.68608a20.49536 20.49536 0 1 0 0 40.9856h123.50464a20.49536 20.49536 0 1 0 0-40.9856zM228.31616 0.72192V161.6384h-38.83008c-28.10368 0-50.96448 22.86592-50.96448 50.96448V664.25856c0 28.09856 22.8608 50.95936 50.96448 50.95936h655.26784c28.1088 0 50.96448-22.85568 50.96448-50.95936v-451.65568c0-28.09856-22.85568-50.96448-50.96448-50.96448h-455.5264l-160.91136-160.91648zM189.48608 674.23232a9.984 9.984 0 0 1-9.97888-9.97376v-451.65568c0-5.49888 4.48-9.97888 9.97888-9.97888h79.81568v-102.9376l102.94784 102.9376h472.50432a9.984 9.984 0 0 1 9.96864 9.97888V664.25856a9.984 9.984 0 0 1-9.96864 9.97376H189.48608z"  horiz-adv-x="1024" />

    
    <glyph glyph-name="xuliang" unicode="&#59017;" d="M512 809.197C277.17 809.197 86.802 618.829 86.802 384c0-234.83 190.367-425.197 425.197-425.197 234.829 0 425.196 190.367 425.196 425.197C937.196 618.829 746.829 809.197 512 809.197zM321.969 528.821h164.844v22.656H341.5v24.219h315.625v-24.219H514.548v-22.656h165.233v-72.656h-30.078v48.438H514.548v-92.969h-27.734v92.969H352.047v-48.438H321.97v72.656z m213.281-67.969v21.094h91.798v-21.094H535.25z m91.798-22.656v-21.094H535.25v21.094h91.798z m-252.736 22.656v21.094h91.797v-21.094h-91.797z m91.797-22.656v-21.094h-91.797v21.094h91.797z m226.953-68.75H509.469l-7.813-30.469h156.642v-87.5c0-25.781-12.892-38.672-38.673-38.672-12.5 0-26.172 0.263-41.016 0.781-0.781 8.594-2.605 18.621-5.469 30.077 15.362-1.563 27.994-2.344 37.891-2.344 11.719 0 17.578 5.209 17.578 15.625v57.813h-67.188v-92.97h-27.734v92.97h-64.844v-92.97h-27.734v92.97h-66.016v-103.906h-29.688V338.977H472.75l6.445 30.469H308.687v24.219h384.375v-24.219z"  horiz-adv-x="1024" />

    
    <glyph glyph-name="rongliang" unicode="&#59018;" d="M498.531 429.993c-32.031-31.513-66.797-58.594-104.297-81.25H610.25c-45.053 23.697-82.294 50.781-111.719 81.25zM512 809.198C277.17 809.198 86.802 618.83 86.802 384S277.17-41.196 512-41.196 937.196 149.17 937.196 384 746.83 809.198 512 809.198zM323.531 547.962h167.188c-5.731 10.416-12.241 21.612-19.531 33.594l30.078 13.672c9.634-14.844 18.75-30.6 27.344-47.266h149.219v-65.625h-31.641v37.5H354.781v-39.063h-31.25v67.188zM671.969 440.93L654 413.196c-32.294 19.791-72.006 41.406-119.141 64.844l16.406 24.219c39.063-17.969 79.297-38.413 120.704-61.329z m-206.25 36.329c-47.919-29.428-88.153-51.953-120.703-67.578-4.688 8.594-10.678 17.578-17.969 26.953 44.791 19.531 84.766 41.534 119.922 66.016l18.75-25.391z m210.546-157.813c-17.188 6.25-33.466 13.15-48.828 20.703v-131.641h-31.25v17.578H405.172v-17.578h-31.25V336.633a556.308 556.308 0 0 0-51.953-24.609c-4.688 9.635-10.419 18.878-17.188 27.734 80.728 34.112 142.447 75.519 185.156 124.219l32.813-5.078a253.527 253.527 0 0 1-6.641-7.813c50-47.919 109.766-80.732 179.297-98.438-8.594-13.021-14.975-24.09-19.141-33.202zM405.172 320.617h191.016v-66.406H405.172z"  horiz-adv-x="1024" />

    
    <glyph glyph-name="shaixuan" unicode="&#59040;" d="M515.717 65.735c-11.598 0-21 9.402-21 21V453.002l207.265 207.264h-494.62l207.265-207.264v-262.553c0-11.598-9.402-21-21-21s-21 9.402-21 21V435.605L105.966 702.266h697.412L536.717 435.605v-348.871c0-11.597-9.403-20.999-21-20.999zM884.211 324.549h-264c-11.598 0-21 9.402-21 21s9.402 21 21 21h264c11.598 0 21-9.402 21-21s-9.403-21-21-21zM884.211 231.549h-264c-11.598 0-21 9.402-21 21s9.402 21 21 21h264c11.598 0 21-9.402 21-21s-9.403-21-21-21zM884.211 138.549h-264c-11.598 0-21 9.402-21 21s9.402 21 21 21h264c11.598 0 21-9.402 21-21s-9.403-21-21-21z"  horiz-adv-x="1024" />

    


  </font>
</defs>
</svg>
